<?xml version="1.0" encoding="UTF-8"?>
<svg width="934px" height="160px" viewBox="0 0 934 160" version="1.1" xmlns="http://www.w3.org/2000/svg" xmlns:xlink="http://www.w3.org/1999/xlink">
    <!-- Generator: sketchtool 52.2 (67145) - http://www.bohemiancoding.com/sketch -->
    <title>D3E06C63-C7B2-4BDF-A501-33D49D215F9A</title>
    <desc>Created with sketchtool.</desc>
    <g id="Zeplin" stroke="none" stroke-width="1" fill="none" fill-rule="evenodd">
        <g id="LiquidApps-White" transform="translate(-12.000000, 0.000000)" fill="#FFFFFF">
            <g id="LiquidApps_Logo-05" transform="translate(12.000000, 0.000000)">
                <path d="M98,79.85 C98,69.8039404 89.8560596,61.66 79.81,61.66 C69.7639404,61.66 61.62,69.8039404 61.62,79.85 C61.62,89.9015824 69.7684176,98.05 79.82,98.05 L98,98.05 L98,79.87 L98,79.85 Z" id="Path"></path>
                <path d="M159.900006,159.86 L159.9,79.93 C159.91047,52.70009 146.042368,27.3424593 123.11,12.66 L123,40.9 L122.87,74.79 L123.18,123.09 L82.67,123.09 C81.73,123.15 80.78,123.2 79.82,123.2 C62.0818024,123.201436 46.1341044,112.391214 39.5661945,95.9137686 C32.9982846,79.4363229 37.1367452,60.6197579 50.0121402,48.4186162 C62.8875352,36.2174744 81.8993003,33.096135 98,40.54 L98.15,2.11 C68.2141644,-4.89129414 36.9161455,5.89968368 17.6562504,29.8627555 C-1.60364466,53.8258274 -5.41058345,86.7122745 7.86538225,114.441701 C21.141348,142.171128 49.1463528,159.82703 79.89,159.85 L159.900006,159.86 Z" id="Path"></path>
                <polygon id="Path" points="228.76 111.44 228.76 50.68 237.63 50.68 237.63 103.31 258.73 103.31 258.73 111.44"></polygon>
                <path d="M292.56,60.69 L292.56,50.69 L301.1,50.69 L301.1,60.69 L292.56,60.69 Z M292.56,111.44 L292.56,66 L301.1,66 L301.1,111.49 L292.56,111.44 Z" id="Shape" fill-rule="nonzero"></path>
                <path d="M377.3,126.62 L377.3,105.11 L377.13,105.11 C373.558709,109.893232 367.908669,112.671757 361.94,112.58 C353.390634,112.624658 345.46687,108.104892 341.153512,100.723253 C336.840154,93.3416145 336.792504,84.21955 341.028512,76.7932532 C345.26452,69.3669563 353.140634,64.7646582 361.69,64.72 C368.92,64.72 375.41,68.49 377.79,72.02 L378,72.02 L378,66 L385.88,66 L385.88,126.67 L377.3,126.62 Z M378,88.86 C378,79.74 371.19,72.52 362.16,72.52 C353.54,72.52 346.64,79.41 346.64,88.61 C346.64,97.81 353.54,104.78 362.4,104.78 C366.57988,104.73778 370.571767,103.036728 373.49738,100.051101 C376.422994,97.0654749 378.042651,93.0398757 378,88.86 Z" id="Shape" fill-rule="nonzero"></path>
                <path d="M457.6,111.44 L457.6,106.51 L457.43,106.51 C455.22,110.37 450.04,112.58 444.05,112.58 C434.28,112.58 425.05,107.33 425.05,91.32 L425.05,66 L433.59,66 L433.59,90.66 C433.59,100.19 437.12,104.78 444.92,104.78 C452.72,104.78 456.83,99.28 456.83,90.5 L456.83,66 L465.37,66 L465.37,111.49 L457.6,111.44 Z" id="Path"></path>
                <path d="M504.73,60.69 L504.73,50.69 L513.27,50.69 L513.27,60.69 L504.73,60.69 Z M504.73,111.44 L504.73,66 L513.27,66 L513.27,111.49 L504.73,111.44 Z" id="Shape" fill-rule="nonzero"></path>
                <path d="M586.5,111.44 L586.5,106.51 L586.34,106.51 C583.8,110.7 579.2,112.91 572.71,112.91 C558.92,112.91 549.88,102.32 549.88,88.53 C549.88,74.9 559.16,64.3 572.46,64.3 C577.489663,64.1279196 582.356188,66.0977902 585.85,69.72 L585.85,50.72 L599.48,50.72 L599.48,111.48 L586.5,111.44 Z M586.59,88.44 C586.59,82.066634 581.423366,76.9 575.05,76.9 C568.676634,76.9 563.51,82.066634 563.51,88.44 C563.51,95.33 568.36,100.18 574.93,100.18 C578.054673,100.246854 581.07021,99.0301568 583.27357,96.8135695 C585.476929,94.5969822 586.675555,91.5742172 586.59,88.45 L586.59,88.44 Z" id="Shape" fill-rule="nonzero"></path>
                <path d="M677.4,111.44 L674.4,102.65 L653.3,102.65 L650.1,111.44 L633.47,111.44 L657.86,50.68 L670.09,50.68 L694.23,111.44 L677.4,111.44 Z M664.1,69.64 L663.85,69.56 L657.61,90.33 L670.34,90.33 L664.1,69.64 Z" id="Shape" fill-rule="nonzero"></path>
                <path d="M728.22,126.62 L728.22,65.87 L741,65.87 L741,70.87 L741.25,70.87 C744.708339,66.5515826 750.000511,64.1167387 755.53,64.3 C768.53,64.3 777.7,74.9 777.7,89.1 C777.7,102.1 768.59,112.99 755.53,112.99 C750.2,112.99 745.53,111.35 741.82,107.33 L741.82,126.62 L728.22,126.62 Z M764.1,88.69 C764.006444,82.4114119 758.857331,77.3884189 752.578353,77.4505588 C746.299375,77.5126987 741.250681,82.6366143 741.281403,88.9158243 C741.312125,95.1950343 746.410715,100.269303 752.69,100.27 C755.741611,100.256853 758.661951,99.0271404 760.803771,96.8534091 C762.945591,94.6796778 764.131983,91.7414714 764.1,88.69 Z" id="Shape" fill-rule="nonzero"></path>
                <path d="M813.78,126.62 L813.78,65.87 L826.59,65.87 L826.59,70.87 L826.83,70.87 C830.294461,66.5538167 835.588319,64.1199013 841.12,64.3 C854.12,64.3 863.29,74.9 863.29,89.1 C863.29,102.1 854.18,112.99 841.12,112.99 C835.78,112.99 831.12,111.35 827.41,107.33 L827.41,126.62 L813.78,126.62 Z M849.66,88.69 C849.571908,82.4031896 844.418628,77.3701712 838.13149,77.4305297 C831.844353,77.4908881 826.788651,82.6219159 826.821275,88.9092588 C826.853898,95.1966017 831.962574,100.274888 838.25,100.27 C841.300775,100.254182 844.219552,99.0236205 846.360794,96.8504755 C848.502036,94.6773306 849.689299,91.7406751 849.66,88.69 Z" id="Shape" fill-rule="nonzero"></path>
                <path d="M918.71,78.67 C918.63,76.05 916.71,75.23 914.52,75.23 C912.33,75.23 910.58,76.54 910.58,78.23 C910.58,80.7 912.8,81.93 919.12,83.57 C929.96,86.44 933.49,90.8 933.49,97.45 C933.49,106.97 925.28,112.96 914.93,112.96 C904.58,112.96 897.36,107.14 896.38,97.86 L909.93,97.86 C910.34,100.73 912.39,102.04 915.1,102.04 C917.48,102.04 919.86,100.65 919.86,98.51 C919.86,95.97 918.3,94.66 911.49,92.51 C900,89 897,84.5 897,79.17 C897,70.17 905.46,64.3 914.66,64.3 C924.51,64.3 931.49,69.72 932.15,78.67 L918.71,78.67 Z" id="Path"></path>
            </g>
        </g>
    </g>
</svg>